<?xml version="1.0" encoding="utf-8"?>
<svg viewBox="0 0 121 121" width="121" height="121" xmlns="http://www.w3.org/2000/svg">
  <path d="M 61.254 60.9 L 75.739 113.125 C 76.644 121.046 47.957 123.527 46.768 113.125 L 61.254 60.9 Z" style="fill: rgb(244, 244, 244); stroke: rgb(187, 187, 187);"/>
  <path d="M 76.517 56.561 L 91.002 108.787 C 91.908 116.708 63.22 119.189 62.032 108.787 L 76.517 56.561 Z" style="stroke: rgb(187, 187, 187); fill: rgb(255, 84, 84);" transform="matrix(0.857167, -0.515038, 0.515038, 0.857167, -33.427109, 51.716064)"/>
  <path d="M 87.553 45.131 L 102.038 97.357 C 102.944 105.278 74.256 107.759 73.068 97.357 L 87.553 45.131 Z" style="fill: rgb(244, 244, 244); stroke: rgb(187, 187, 187);" transform="matrix(0.469472, -0.882947, 0.882947, 0.469472, -19.497023, 116.941818)"/>
  <path d="M 90.707 29.365 L 105.192 81.59 C 106.097 89.511 77.41 91.992 76.221 81.59 L 90.707 29.365 Z" style="fill: rgb(255, 84, 84); stroke: rgb(187, 187, 187);" transform="matrix(-0.052335, -0.99863, 0.99863, -0.052335, 36.616745, 152.605362)"/>
  <path d="M 36.21 14.17 L 50.696 66.396 C 51.601 74.317 22.914 76.798 21.726 66.396 L 36.21 14.17 Z" style="fill: rgb(244, 244, 244); stroke: rgb(187, 187, 187);" transform="matrix(-0.559193, 0.829038, -0.829038, -0.559193, 92.733551, 38.161034)"/>
  <path d="M 31.271 29.25 L 45.757 81.476 C 46.662 89.396 17.975 91.877 16.786 81.476 L 31.271 29.25 Z" style="fill: rgb(255, 84, 84); stroke: rgb(187, 187, 187);" transform="matrix(-0.052336, 0.99863, -0.99863, -0.052336, 91.652344, 30.65276)"/>
  <path d="M 34.576 44.791 L 49.061 97.016 C 49.967 104.937 21.279 107.418 20.091 97.016 L 34.576 44.791 Z" style="fill: rgb(244, 244, 244); stroke: rgb(187, 187, 187);" transform="matrix(0.46947, 0.882948, -0.882948, 0.46947, 84.000496, 8.909264)"/>
  <path d="M 45.885 56.221 L 60.37 108.447 C 61.276 116.368 32.588 118.849 31.4 108.447 L 45.885 56.221 Z" style="fill: rgb(255, 84, 84); stroke: rgb(187, 187, 187);" transform="matrix(0.857167, 0.515039, -0.515039, 0.857167, 50.738087, -11.385002)"/>
  <path d="M 87.753 16.818 L 102.238 69.044 C 103.144 76.965 74.457 79.446 73.268 69.044 L 87.753 16.818 Z" style="fill: rgb(244, 244, 244); stroke: rgb(187, 187, 187);" transform="matrix(-0.469472, -0.882947, 0.882947, -0.469472, 88.013023, 145.647858)"/>
  <path d="M 76.758 5.377 L 91.243 57.604 C 92.148 65.525 63.461 68.006 62.272 57.604 L 76.758 5.377 Z" style="fill: rgb(255, 84, 84); stroke: rgb(187, 187, 187);" transform="matrix(-0.857167, -0.515038, 0.515038, -0.857167, 124.574699, 104.430954)"/>
  <path d="M 61.484 1 L 75.97 53.225 C 76.875 61.146 48.188 63.627 46.999 53.225 L 61.484 1 Z" style="fill: rgb(244, 244, 244); stroke: rgb(187, 187, 187);" transform="matrix(-1, -0.000001, 0.000001, -1, 122.989937, 61.127396)"/>
  <path d="M 46.082 5.618 L 60.568 57.844 C 61.473 65.766 32.786 68.247 31.597 57.844 L 46.082 5.618 Z" style="fill: rgb(255, 84, 84); stroke: rgb(187, 187, 187);" transform="matrix(-0.857168, 0.515037, -0.515037, -0.857168, 103.722717, 41.600307)"/>
</svg>