<?xml version="1.0" encoding="utf-8"?>
<svg viewBox="0 0 637 633" width="637" height="633" xmlns="http://www.w3.org/2000/svg">
  <polygon style="fill: rgb(238, 238, 238); stroke: rgb(126, 126, 126);" points="631.103 310.383 635.042 314.183 636.096 316.838 635.003 318.938 630.731 322.437 621.368 327.945 593.609 340.699 564.349 351.203 533.588 355.704 496.076 354.954 478.07 361.706 396.292 519.259 335.855 628.129 327.692 631.868 304.344 625.128 359.113 356.537 320.85 354.286 219.565 359.538 175.3 355.787 120.532 343.033 108.528 338.531 110.778 334.03 208.311 316.774 208.311 312.272 116.78 308.521 107.777 292.015 174.55 277.01 212.813 273.259 284.837 273.259 356.862 273.259 294.591 4.751 320.85 1 328.352 5.502 482.905 277.094 545.176 277.844 572.935 283.846 595.443 291.348 623.952 305.603"/>
  <path d="M 412.557 280.968 L 313.241 8.099 L 324.527 9.855 L 474.254 278.461 L 484.787 278.962 L 511.121 284.229 L 517.893 295.515 L 514.131 307.553 L 512.626 323.354 L 518.645 339.154 L 502.092 349.687 L 475.006 357.964 L 330.546 625.064 L 320.765 625.064 L 412.557 350.44 L 412.557 280.968 Z M 311.937 620.581 L 380.987 363.299 L 397.377 367.769 L 311.937 620.581 Z M 395.626 266.056 L 379.236 270.526 L 306.225 11.264 L 395.626 266.056 Z" style="fill: none; stroke: rgb(126, 126, 126);"/>
  <polygon style="fill: rgb(216, 216, 216); stroke: rgb(126, 126, 126);" points="524.884 402.298 519.653 393.33 507.696 390.34 483.501 392.185 465.845 394.824 509.938 406.035 465.097 415.002 477.055 420.981 508.431 421.962 522.642 417.992 524.137 412.013"/>
  <polygon style="fill: rgb(216, 216, 216); stroke: rgb(126, 126, 126);" points="482.275 482.147 477.044 473.179 465.087 470.189 440.892 472.034 423.236 474.673 467.329 485.884 422.488 494.851 434.446 500.83 465.822 501.811 480.033 497.841 481.528 491.862"/>
  <polygon style="fill: rgb(216, 216, 216); stroke: rgb(126, 126, 126);" points="521.895 223.567 516.664 214.599 504.707 211.609 480.512 213.454 462.856 216.093 506.949 227.304 462.108 236.271 474.066 242.25 505.442 243.231 519.653 239.261 521.148 233.282"/>
  <polygon style="fill: rgb(216, 216, 216); stroke: rgb(126, 126, 126);" points="476.044 143.602 470.813 134.634 458.856 131.644 434.661 133.489 417.005 136.128 461.098 147.339 416.257 156.306 428.215 162.285 459.591 163.266 473.802 159.296 475.297 153.317"/>
  <polygon style="stroke: rgb(126, 126, 126); fill: rgb(179, 179, 179);" points="508.533 406.035 464.35 414.419 451.645 413.508 453.293 409.557 489.759 406.034 458.371 399.308 461.57 393.508"/>
  <polygon style="stroke: rgb(126, 126, 126); fill: rgb(195, 195, 195);" points="489.073 405.885 452.991 409.651 458.371 399.308"/>
  <polygon style="stroke: rgb(126, 126, 126); fill: rgb(179, 179, 179);" points="466.955 486 421.659 494.654 409.932 493.365 411.786 489.628 445.984 485.457 417.306 479.165 420.09 473.813"/>
  <polygon style="stroke: rgb(126, 126, 126); fill: rgb(195, 195, 195);" points="446.777 485.252 411.653 489.736 417.631 479.273"/>
  <polygon style="stroke: rgb(126, 126, 126); fill: rgb(179, 179, 179);" points="506.371 227.404 463.237 215.909 449.777 217.705 451.767 221.766 486.639 226.666 457.998 232.652 460.24 237.136"/>
  <polygon style="stroke: rgb(126, 126, 126); fill: rgb(195, 195, 195);" points="487.144 226.673 452.02 222.189 457.998 232.652"/>
  <polygon style="stroke: rgb(126, 126, 126); fill: rgb(179, 179, 179);" points="460.186 147.245 417.483 136.134 403.926 137.74 407.289 142.224 443.535 145.961 412.147 152.687 414.389 157.171"/>
  <polygon style="stroke: rgb(126, 126, 126); fill: rgb(195, 195, 195);" points="442.698 146.123 406.169 142.224 412.147 152.687"/>
  <polygon style="stroke: rgb(126, 126, 126); fill: rgb(210, 210, 210);" points="208.013 317.101 110.859 335.037 116.09 325.322 30.894 324.574 4.737 315.606 33.136 314.112 102.638 308.133 208.013 311.87"/>
  <polygon style="stroke: rgb(126, 126, 126); fill: rgb(116, 116, 116);" points="116.838 326.069 174.383 323.08 109.364 336.532"/>
  <polygon style="stroke: rgb(126, 126, 126); fill: rgb(231, 231, 231);" points="116.09 326.069 33.935 453.864 0.863 454.611 34.63 325.321"/>
  <polygon style="stroke: rgb(126, 126, 126); fill: rgb(231, 231, 231);" points="116.838 308.133 107.672 292.324 30.146 179.591 1 181.833 34.63 313.362 104.88 307.386"/>
  <polyline style="fill: rgb(223, 223, 223); stroke: rgb(126, 126, 126);" points="309.919 273.232 357.046 273.649 403.068 281.229 435.951 287.955 452.393 296.176 462.108 314.859 451.645 334.29 432.214 346.247 398.584 352.973 358.437 357.133 312.981 353.798"/>
  <polyline style="fill: rgb(238, 238, 238); stroke: rgb(126, 126, 126);" points="306.46 353.945 306.814 353.146 445.666 320.838 445.666 309.628 308.904 273.755"/>
  <polygon style="fill: rgb(195, 195, 195); stroke: rgb(126, 126, 126);" points="266.305 312.617 266.305 318.596 544.315 320.09 544.315 313.364"/>
  <ellipse style="stroke: rgb(126, 126, 126); fill: rgb(255, 255, 255);" cx="313.014" cy="315.98" rx="7.1" ry="2.616"/>
  <ellipse style="stroke: rgb(126, 126, 126); fill: rgb(255, 255, 255);" cx="422.873" cy="316.354" rx="10.836" ry="2.989"/>
  <ellipse style="stroke: rgb(126, 126, 126); fill: rgb(255, 255, 255);" cx="532.358" cy="316.354" rx="5.979" ry="2.989"/>
  <ellipse style="stroke: rgb(126, 126, 126); fill: rgb(234, 202, 47);" cx="380.274" cy="315.98" rx="3.363" ry="2.616"/>
  <polygon style="fill: rgb(24, 24, 24); stroke-width: 0px; stroke: rgb(126, 126, 126);" points="602.608 330.301 600.24 335.029 609.334 331.789 608.58 327.688"/>
  <polygon style="stroke: rgb(126, 126, 126); fill: rgb(173, 173, 173);" points="306.662 354.468 333.566 368.667 355.238 373.898 358.227 357.457 328.334 355.215"/>
  <polygon style="stroke: rgb(126, 126, 126); fill: rgb(173, 173, 173);" points="307.409 273.008 325.345 262.545 352.996 256.567 356.733 273.755"/>
  <polygon style="fill: rgb(216, 216, 216); stroke: rgb(126, 126, 126);" points="329.829 156.423 311.893 163.897 332.071 167.634"/>
  <polygon style="fill: rgb(216, 216, 216); stroke: rgb(126, 126, 126);" points="347.897 236.014 329.961 243.488 350.139 247.225"/>
  <polygon style="fill: rgb(216, 216, 216); stroke: rgb(126, 126, 126);" points="337.171 189.679 319.235 197.153 339.413 200.89"/>
  <polygon style="fill: rgb(216, 216, 216); stroke: rgb(126, 126, 126);" points="350.886 394.704 332.95 387.23 353.128 383.493"/>
  <polygon style="fill: rgb(216, 216, 216); stroke: rgb(126, 126, 126);" points="341.413 440.786 323.477 433.312 343.655 429.575"/>
  <polygon style="fill: rgb(216, 216, 216); stroke: rgb(126, 126, 126);" points="334.687 475.911 316.751 468.437 336.929 464.7"/>
  <path d="M 586.166 308.88 L 606.344 308.88 L 612.014 313.726 L 612.014 318.079 L 606.344 323.079 L 586.166 323.079 L 586.166 308.88 Z" style="fill: rgb(244, 244, 244); stroke: rgb(126, 126, 126);"/>
  <polygon style="fill: rgb(22, 22, 22); stroke-width: 0px; stroke: rgb(126, 126, 126);" points="610.145 327.12 610.899 330.764 617.936 327.371 614.669 324.481"/>
  <polygon style="fill: rgb(24, 24, 24); stroke-width: 0px; stroke: rgb(126, 126, 126);" points="619.319 326.234 615.926 323.47 622.083 316.684 616.302 308.641 620.072 305.5 627.11 316.81"/>
  <polygon style="fill: rgb(16, 16, 16); stroke-width: 0px; stroke: rgb(126, 126, 126);" points="603.163 301.56 600.795 296.832 609.889 300.072 609.135 304.173"/>
  <polygon style="fill: rgb(24, 24, 24); stroke-width: 0px; stroke: rgb(126, 126, 126);" points="610.7 304.741 611.454 301.097 618.491 304.49 615.224 307.38"/>
  <text style="fill: rgb(134, 134, 134); font-family: Arial, sans-serif; font-size: 18.5px; font-weight: 700; white-space: pre;" transform="matrix(0.484809, 0.87462, -0.87462, 0.484809, 227.674927, -413.875854)" x="497.567" y="136.78">EMBLITZ</text>
  <text style="fill: rgb(134, 134, 134); font-family: Arial, sans-serif; font-size: 18.5px; font-weight: 700; white-space: pre;" transform="matrix(-0.48481, 0.874619, -0.874619, -0.48481, 753.553467, 109.082283)" x="497.567" y="136.78">EMBLITZ</text>
</svg>