<?xml version="1.0" encoding="utf-8"?>
<svg viewBox="0 0 306 358" width="306" height="358" xmlns="http://www.w3.org/2000/svg" xmlns:xlink="http://www.w3.org/1999/xlink" xmlns:bx="https://boxy-svg.com">
  <defs>
    <linearGradient gradientUnits="userSpaceOnUse" x1="247.143" y1="57.628" x2="247.143" y2="367.641" id="gradient-0-2" spreadMethod="pad" gradientTransform="matrix(1, 0, 0, 1, 0, 0)" xlink:href="#gradient-0"/>
    <linearGradient id="gradient-0" bx:pinned="true">
      <stop offset="0" style="stop-color: rgb(255, 170, 79);"/>
      <stop offset="0.197" style="stop-color: rgb(255, 179, 27);"/>
      <stop offset="1" style="stop-color: rgb(255, 39, 11);"/>
    </linearGradient>
    <linearGradient id="gradient-0-1" gradientUnits="userSpaceOnUse" x1="247.009" y1="344.868" x2="247.009" y2="414.808" gradientTransform="matrix(1, 0, 0, 1, 0, 0)" xlink:href="#gradient-0"/>
    <linearGradient id="gradient-0-0" gradientUnits="userSpaceOnUse" x1="244.434" y1="274.526" x2="244.434" y2="301.922" gradientTransform="matrix(1, 0, 0, 1, 0, 0)" xlink:href="#gradient-0"/>
    <radialGradient id="gradient-0-3" gradientUnits="userSpaceOnUse" cx="247.446" cy="123.083" r="152.026" gradientTransform="matrix(1.112093, 0.073661, -0.066092, 0.997814, -19.602161, -17.957994)" xlink:href="#gradient-0"/>
    <radialGradient id="gradient-0-4" gradientUnits="userSpaceOnUse" cx="247.446" cy="123.083" r="152.026" gradientTransform="matrix(1.112093, 0.073661, -0.066092, 0.997814, -19.763929, -17.910175)" xlink:href="#gradient-0"/>
  </defs>
  <g transform="matrix(1, 0, 0, 1, -94.116997, -56.591999)">
    <polygon style="fill: url(#gradient-0-2); stroke: rgb(219, 219, 219);" points="279.125 362.599 274.491 326.79 275.333 302.356 271.963 263.177 277.018 244.219 277.44 227.789 293.448 229.474 324.202 227.789 339.368 219.364 353.692 220.206 368.015 210.517 381.075 211.359 386.13 188.61 393.021 177.236 387.99 161.027 399.169 148.172 393.021 131.405 371.223 109.607 349.984 82.779 320.92 62.658 267.264 57.628 195.723 64.335 159.393 66.57 117.474 93.957 98.471 128.61 103.501 155.438 95.117 161.027 109.09 194.562 106.296 211.33 143.184 228.656 163.864 229.774 206.156 238.531 222.364 228.47 226.836 250.827 225.159 281.008 219.57 311.19 218.452 338.577 207.274 367.641 229.63 367.082 251.428 367.64"/>
    <polygon style="fill: url(#gradient-0-1); stroke: rgb(219, 219, 219);" points="209.763 366.802 205.624 368.457 194.864 358.111 180.794 357.283 170.861 357.283 163.412 344.868 150.583 347.351 143.548 354.386 143.962 365.146 131.132 364.319 121.2 377.975 117.062 385.011 125.752 397.426 120.372 405.703 143.962 414.808 175.828 407.358 199.83 412.325 231.697 411.911 257.769 412.325 280.116 410.255 298.739 411.911 313.224 406.945 327.708 412.325 339.71 409.841 349.228 413.566 367.024 406.117 376.956 392.46 374.473 384.183 366.196 378.803 366.196 366.388 353.781 357.697 342.193 349.42 331.847 353.559 322.328 349.834 311.155 358.939 299.981 358.525 290.876 366.388 282.186 363.077 266.046 359.352 245.767 365.974 225.903 364.732 216.798 365.146"/>
    <polygon style="fill: url(#gradient-0-0); stroke: rgb(219, 219, 219);" points="225.301 280.179 210.516 281.049 195.731 278.005 175.727 282.354 159.637 291.486 166.595 301.922 200.079 301.052 216.604 294.095 230.954 300.618 272.701 297.574 288.79 298.443 310.533 301.922 329.232 295.834 322.275 279.31 312.273 274.526 292.704 278.005 273.57 277.57 249.653 278.875"/>
    <polygon style="fill: url(#gradient-0-3); stroke: rgb(219, 219, 219);" points="291.629 196.213 317.083 185.887 341.573 185.326 357.157 180.968 368.002 179.732 381.946 181.46 388.293 168.524 399.472 148.136 393.324 131.369 371.526 109.571 350.287 82.743 321.223 62.622 267.567 57.592 196.026 64.299 159.696 66.534 117.777 93.921 98.774 128.574 103.804 155.402 95.177 161.098 111.812 177.786 130.01 191.073 155.48 200.017 184.451 199.307 200.531 202.425 229.352 193.081 254.062 208.251"/>
    <polygon style="fill: url(#gradient-0-4); stroke: rgb(219, 219, 219);" points="281.518 143.445 298.088 158.627 319.282 158.066 345.695 165.95 358.894 168.48 373.78 173.975 388.131 161.039 399.31 148.184 393.162 131.417 371.364 109.619 350.125 82.791 321.061 62.67 267.405 57.64 195.864 64.347 159.534 66.582 117.615 93.969 98.612 128.622 103.642 155.45 107.27 161.039 115.417 169.83 134.556 165.226 156.26 162.87 175.815 169.612 197.299 169.371 221.943 149.75 253.409 144.55"/>
    <polyline style="fill: none; stroke: rgb(219, 219, 219);" points="368.37 194.755 350.887 204.589 337.775 197.766 330.195 212.408 316.285 207.502 304.692 218.696"/>
    <polyline style="fill: none; stroke: rgb(219, 219, 219);" points="258.087 218.165 239.472 212.814 220.076 217.848 207.038 209.445 200.238 221.912 191.783 212.501"/>
    <polyline style="fill: none; stroke: rgb(219, 219, 219);" points="150.293 219.318 141.585 202.778 127.358 210.638 118.663 199.959"/>
    <polyline style="fill: none; stroke: rgb(219, 219, 219);" points="159.992 175.874 169.353 189.893 188.141 178.038 210.824 186.259 231.791 176.114 238.281 184.169"/>
    <polyline style="fill: none; stroke: rgb(219, 219, 219);" points="317.759 131.241 294.358 110.075 282.41 123.873 235.374 119.906 222.189 134.165"/>
    <polyline style="fill: none; stroke: rgb(219, 219, 219);" points="163.678 100.735 184.7 87.959 204.669 102.494 223.345 83.436 251.431 93.809"/>
    <polyline style="fill: none; stroke: rgb(219, 219, 219);" points="115.099 145.182 128.058 136.797 147.497 146.326 170.209 137.253"/>
    <polyline style="fill: none; stroke: rgb(219, 219, 219);" points="355.223 104.78 330.829 96.395 317.165 102.776"/>
  </g>
</svg>