<?xml version="1.0" encoding="utf-8"?>
<svg viewBox="0 0 427 399" width="427" height="399" xmlns="http://www.w3.org/2000/svg">
  <path style="fill: rgb(255, 255, 255);" d="M 0 184.314 C 5.539 100.365 34.676 45.828 106.499 0.491 L 181.113 129.41 C 159.72 142.931 149.111 161.286 149.286 184.475 L 0 184.314 Z"/>
  <ellipse style="fill: rgb(255, 255, 255);" cx="213.102" cy="184.795" rx="42.367" ry="43.41"/>
  <path style="fill: rgb(255, 255, 255);" d="M 245.114 0.161 C 250.653 84.11 279.79 138.647 351.613 183.984 L 426.227 55.065 C 404.834 41.544 394.225 23.189 394.4 0 L 245.114 0.161 Z" transform="matrix(-1, 0, 0, -1, 671.341003, 183.983994)"/>
  <path style="fill: rgb(255, 255, 255);" d="M 141.001 245.745 C 146.54 329.694 175.677 384.231 247.5 429.568 L 322.113 300.649 C 300.72 287.128 290.111 268.773 290.286 245.584 L 141.001 245.745 Z" transform="matrix(0.5, -0.866025, 0.866025, 0.5, -176.570892, 369.322174)"/>
</svg>