<?xml version="1.0" encoding="utf-8"?>
<svg viewBox="0 0 77 83" width="77" height="83" xmlns="http://www.w3.org/2000/svg">
  <path style="stroke-linejoin: round; stroke: rgb(83, 83, 83); fill: rgb(255, 255, 255);" d="M 76.152 10.759 C 76.152 10.759 76.152 54.376 71.152 61.836 C 62.394 74.228 43.501 81.634 38.832 81.634 C 33.252 81.634 14.255 72.148 6.512 61.836 C 1.512 55.217 0.114 11.541 1.512 10.759 C 4.439 11.999 26.473 0.746 38.832 1.004 C 53.131 1.015 70.794 11.923 76.152 10.759 Z"/>
  <path style="stroke-linejoin: round; paint-order: fill; fill-rule: nonzero; stroke: rgb(83, 83, 83); fill: rgb(255, 255, 255);" d="M 69.833 15.879 C 69.833 15.879 69.833 52.187 65.674 58.398 C 58.389 68.712 42.673 74.878 38.79 74.878 C 34.148 74.878 18.346 66.981 11.905 58.398 C 7.745 52.887 6.583 16.53 7.745 15.879 C 10.18 16.911 28.509 7.544 38.79 7.76 C 50.684 7.768 65.377 16.849 69.833 15.879 Z"/>
</svg>