<?xml version="1.0" encoding="utf-8"?>
<svg viewBox="0 0 312 221" width="312" height="221" xmlns="http://www.w3.org/2000/svg">
  <rect x="125.971" y="79.642" width="42.494" height="64.809" style="stroke: rgb(0, 0, 0); fill: rgb(216, 216, 216);"/>
  <polygon style="stroke: rgb(0, 0, 0); fill: rgb(159, 159, 159);" points="274.923 106.778 267.559 74.575 256.152 73.837 255.868 107.54"/>
  <polygon style="stroke: rgb(0, 0, 0); fill: rgb(106, 106, 106);" points="278.759 112.615 283.285 106.964 287.311 106.897 287.986 115.037 299.327 116.178 298.991 119.734 287.951 119.363 288.018 126.342 283.053 126.61 278.02 119.296 253.796 118.357 198.64 122.997 197.901 128.499 186.373 129.521 153.949 131.283 122.647 132.946 56.375 132.946 44.984 126.455 44.514 95.948 53.572 91.587 126.041 89.364 155.964 91.259 188.721 92.699 198.384 93.786 198.921 100.416 220.662 98.47 221.937 94.645 234.753 95.652 240.574 105.745 269.36 107.459 270.654 111.555"/>
  <polygon style="stroke: rgb(0, 0, 0); fill: rgb(160, 160, 160);" points="56.375 91.506 34.299 93.786 16.506 99.568 7.179 109.175 6.981 114.887 17.117 123.463 33.891 129.863 55.941 132.946"/>
  <rect x="15.987" y="106.642" width="28.527" height="10.271" style="fill: rgb(127, 127, 127);"/>
  <polygon style="stroke: rgb(0, 0, 0); fill: rgb(191, 191, 191);" points="122.992 124.553 123.121 132.946 72.525 132.946 72.094 126.238 60.263 124.171 44.514 122.847 44.514 100.992 57.94 100.064 72.5 96.512 72.614 91.426 123.088 89.364"/>
  <polygon style="stroke: rgb(0, 0, 0); fill: rgb(138, 138, 138);" points="157.912 117.226 158.037 104.448 146.281 101.278 139.692 93.786 126.512 94.289 110.401 99.552 80.012 102.23 80.11 119.827 110.687 120.739 126.046 125.133 139.475 126.238 147.521 120.473"/>
  <polygon style="" points="30.816 98.086 29.278 103.239 29.356 110.755 20.401 110.805 20.542 105.116 22.06 99.667"/>
  <polygon style="" points="30.573 125.171 29.035 120.018 29.113 112.502 20.158 112.452 20.299 118.141 21.817 123.59"/>
  <polygon style="stroke: rgb(0, 0, 0); fill: rgb(86, 86, 86);" points="15.987 100.351 15.807 122.049 6.981 114.775 6.981 109.43"/>
  <polygon style="stroke: rgb(0, 0, 0); fill: rgb(171, 171, 171);" points="44.48 106.638 32.572 106.642 32.67 100.351 35.925 93.776 52.842 92.506"/>
  <polygon style="fill: rgb(216, 216, 216); stroke: rgb(0, 0, 0);" points="80.012 104.702 59.346 106.642 59.283 115.052 80.012 116.913"/>
  <rect x="92.224" y="104.702" width="5.279" height="12.211" style="fill: rgb(216, 216, 216); stroke: rgb(0, 0, 0);"/>
  <polygon style="stroke: rgb(0, 0, 0); fill: rgb(171, 171, 171);" points="44.48 116.917 32.572 116.913 32.67 123.204 35.925 129.779 52.842 132.049"/>
  <rect x="125.971" y="104.702" width="60.004" height="12.211" style="stroke: rgb(0, 0, 0); fill: rgb(197, 197, 197);"/>
  <rect x="258.43" y="127.015" width="52.201" height="3.907" style="fill: rgba(202, 202, 202, 0.59); stroke: rgb(141, 141, 141);"/>
  <ellipse style="fill: rgba(202, 202, 202, 0.48); stroke: rgb(141, 141, 141);" cx="110.093" cy="110.093" rx="109.093" ry="109.093"/>
  <ellipse style="stroke: rgb(0, 0, 0); fill: rgb(211, 211, 211);" cx="109.672" cy="110.577" rx="3.875" ry="3.875"/>
  <path style="fill: none; stroke: rgb(153, 153, 153);" d="M 30.572 64.627 C 63.699 64.627 93.656 44.938 106.797 14.53" transform="matrix(-1, 0, 0, -1, 137.369003, 79.156998)"/>
  <path style="fill: none; stroke: rgb(153, 153, 153);" d="M 40.401 64.294 C 67.675 64.294 92.339 48.083 103.158 23.048" transform="matrix(-1, 0, 0, -1, 143.55899, 87.341995)"/>
  <path d="M 137.8 113.971 L 137.8 108.204 L 139.721 108.204 L 139.721 110.49 L 141.559 110.49 L 141.559 111.603 L 139.721 111.603 L 139.721 113.971 L 137.8 113.971 Z M 141.221 109.873 L 141.221 109.321 L 140.025 109.321 L 140.025 108.204 L 143.028 108.204 L 143.028 109.873 L 141.221 109.873 Z M 140.025 113.971 L 140.025 112.819 L 141.108 112.819 L 141.108 112.241 L 143.028 112.241 L 143.028 113.971 L 140.025 113.971 Z M 146.802 113.971 L 146.802 110.507 L 146.02 110.507 L 146.02 109.964 L 146.624 109.356 L 148.11 109.356 L 148.727 109.973 L 148.727 113.971 L 146.802 113.971 Z M 143.79 113.971 L 143.79 109.356 L 145.716 109.356 L 145.716 113.971 L 143.79 113.971 Z M 149.814 113.971 L 149.814 110.507 L 149.031 110.507 L 149.031 109.973 L 149.622 109.356 L 150.796 109.356 L 151.734 110.303 L 151.734 113.971 L 149.814 113.971 Z M 152.623 113.971 L 152.623 107.596 L 154.544 107.596 L 154.544 113.971 L 152.623 113.971 Z M 154.848 113.971 L 154.848 112.893 L 155.708 112.893 L 155.708 110.507 L 154.848 110.507 L 154.848 109.925 L 155.413 109.356 L 156.464 109.356 L 157.62 110.507 L 157.62 112.819 L 156.464 113.971 L 154.848 113.971 Z M 159.555 113.971 L 158.477 112.893 L 158.477 107.596 L 160.398 107.596 L 160.398 112.819 L 161.258 112.819 L 161.258 113.971 L 159.555 113.971 Z M 161.804 108.782 L 161.804 107.557 L 163.729 107.557 L 163.729 108.782 L 161.804 108.782 Z M 161.804 113.971 L 161.804 109.356 L 163.729 109.356 L 163.729 113.971 L 161.804 113.971 Z M 165.939 113.971 L 164.783 112.819 L 164.783 110.507 L 164.401 110.507 L 164.401 109.356 L 164.783 109.356 L 164.783 108.856 L 166.704 108.204 L 166.704 112.819 L 167.973 112.819 L 167.973 113.971 L 165.939 113.971 Z M 167.008 110.507 L 167.008 109.356 L 168.042 109.356 L 168.042 110.507 L 167.008 110.507 Z M 168.757 113.971 L 168.757 112.854 L 171.756 109.356 L 173.081 109.356 L 173.081 110.507 L 170.044 113.971 L 168.757 113.971 Z M 168.801 110.507 L 168.801 109.356 L 171.395 109.356 L 170.4 110.507 L 168.801 110.507 Z M 170.4 113.971 L 171.421 112.819 L 173.086 112.819 L 173.086 113.971 L 170.4 113.971 Z" style="fill: rgb(70, 70, 70); white-space: pre;"/>
</svg>