<?xml version="1.0" encoding="utf-8"?>
<svg viewBox="0 0 384 385" width="384" height="385" xmlns="http://www.w3.org/2000/svg">
  <g style="" transform="matrix(1.157896, 0, 0, 1.157896, -86.121063, -82.280449)">
    <path d="M 240.929 238.355 L 281.175 383.462 C 283.689 405.47 203.983 412.363 200.679 383.462 L 240.929 238.355 Z" style="fill: rgb(244, 244, 244); stroke: rgb(187, 187, 187);"/>
    <path d="M 283.337 226.3 L 323.582 371.408 C 326.1 393.416 246.39 400.311 243.09 371.408 L 283.337 226.3 Z" style="stroke: rgb(187, 187, 187); fill: rgb(84, 155, 255);" transform="matrix(0.857167, -0.515038, 0.515038, 0.857167, -118.386159, 189.999616)"/>
    <path d="M 313.999 194.542 L 354.246 339.651 C 356.764 361.659 277.054 368.553 273.753 339.651 L 313.999 194.542 Z" style="fill: rgb(244, 244, 244); stroke: rgb(187, 187, 187);" transform="matrix(0.469472, -0.882947, 0.882947, 0.469472, -77.697749, 424.060103)"/>
    <path d="M 322.764 150.734 L 363.009 295.842 C 365.524 317.85 285.817 324.743 282.514 295.842 L 322.764 150.734 Z" style="stroke: rgb(187, 187, 187); fill: rgb(84, 155, 255);" transform="matrix(-0.052335, -0.99863, 0.99863, -0.052335, 107.126239, 567.412689)"/>
    <path d="M 171.343 108.515 L 211.593 253.627 C 214.108 275.635 134.401 282.529 131.1 253.627 L 171.343 108.515 Z" style="fill: rgb(244, 244, 244); stroke: rgb(187, 187, 187);" transform="matrix(-0.559193, 0.829038, -0.829038, -0.559193, 425.27198, 155.198844)"/>
    <path d="M 157.62 150.417 L 197.87 295.526 C 200.385 317.531 120.678 324.426 117.375 295.526 L 157.62 150.417 Z" style="stroke: rgb(187, 187, 187); fill: rgb(84, 155, 255);" transform="matrix(-0.052336, 0.99863, -0.99863, -0.052336, 398.143351, 87.295236)"/>
    <path d="M 166.804 193.596 L 207.051 338.702 C 209.567 360.711 129.858 367.604 126.558 338.702 L 166.804 193.596 Z" style="fill: rgb(244, 244, 244); stroke: rgb(187, 187, 187);" transform="matrix(0.46947, 0.882948, -0.882948, 0.46947, 331.972746, -1.0182)"/>
    <path d="M 198.226 225.355 L 238.473 370.465 C 240.989 392.474 161.281 399.367 157.979 370.465 L 198.226 225.355 Z" style="stroke: rgb(187, 187, 187); fill: rgb(84, 155, 255);" transform="matrix(0.857167, 0.515039, -0.515039, 0.857167, 186.691394, -58.188032)"/>
    <path d="M 314.555 115.875 L 354.802 260.984 C 357.32 282.992 277.613 289.887 274.31 260.984 L 314.555 115.875 Z" style="fill: rgb(244, 244, 244); stroke: rgb(187, 187, 187);" transform="matrix(-0.469472, -0.882947, 0.882947, -0.469472, 287.434175, 568.745108)"/>
    <path d="M 284.006 84.085 L 324.253 229.197 C 326.768 251.207 247.061 258.099 243.758 229.197 L 284.006 84.085 Z" style="stroke: rgb(187, 187, 187); fill: rgb(84, 155, 255);" transform="matrix(-0.857167, -0.515038, 0.515038, -0.857167, 441.884906, 455.006193)"/>
    <path d="M 241.567 71.924 L 281.817 217.032 C 284.332 239.04 204.625 245.932 201.321 217.032 L 241.567 71.924 Z" style="fill: rgb(244, 244, 244); stroke: rgb(187, 187, 187);" transform="matrix(-1, -0.000001, 0.000001, -1, 483.19612, 308.133436)"/>
    <path d="M 198.772 84.754 L 239.022 229.863 C 241.537 251.874 161.83 258.769 158.527 229.863 L 198.772 84.754 Z" style="stroke: rgb(187, 187, 187); fill: rgb(84, 155, 255);" transform="matrix(-0.857168, 0.515037, -0.515037, -0.857168, 455.170795, 207.567934)"/>
  </g>
  <rect x="100.922" y="101.359" width="182.217" height="182.217" style="stroke: rgb(0, 0, 0); fill: rgb(250, 190, 106);"/>
  <path style="fill: rgb(255, 255, 255); stroke: rgb(157, 107, 37); stroke-width: 6px;" d="M 141.049 104.216 L 143.429 281.093"/>
  <path style="fill: rgb(255, 255, 255); stroke: rgb(157, 107, 37); stroke-width: 6px;" d="M 191.204 280.131 L 192.988 102.285"/>
  <path style="fill: rgb(255, 255, 255); stroke: rgb(157, 107, 37); stroke-width: 6px;" d="M 241.951 101.806 L 242.543 277.238"/>
  <rect x="231.776" y="306.854" width="251" height="27.864" style="stroke: rgb(0, 0, 0); fill: rgb(183, 118, 26);" transform="matrix(0.707107, 0.707107, -0.707107, 0.707107, 166.227814, -286.995239)"/>
  <path d="M 112.994 113.431 L 271.066 113.431 L 271.066 271.503 L 112.994 271.503 L 112.994 113.431 Z M 89.122 295.375 L 294.939 295.375 L 294.939 89.558 L 89.122 89.558 L 89.122 295.375 Z" style="stroke: rgb(0, 0, 0); fill: rgb(183, 118, 26);"/>
</svg>